#!OML:ASF H:\Dans Jumps\Project 1\Capture day 1\Session 1\subject.ASF
:FULLY-SPECIFIED
:DEGREES
134
root 0.443376 17.56 -14.43 9.02916 -1.40821 -1.42766
lowerback 2.73227 -0.467806 -0.346617
upperback 5.99198 -0.690865 1.78217
thorax 4.6812 -0.408166 2.02755
lowerneck -15.4074 0.372824 -2.02281
upperneck 25.8538 0.421699 2.31455
head 10.8675 0.271202 1.23659
rclavicle -3.08116e-015 1.19271e-014
rhumerus -20.935 -12.845 -80.687
rradius 25.0162
rwrist 30.9133
rhand -19.2728 -26.9478
rfingers 7.12502
rthumb 7.04183 -56.8106
lclavicle -3.08116e-015 1.19271e-014
lhumerus -17.2264 -4.9846 87.4526
lradius 22.9135
lwrist 6.86804
lhand -26.3385 -3.1221
lfingers 7.12502
lthumb 0.218838 26.8575
rfemur -20.2472 -3.87248 19.6245
rtibia 26.1544
rfoot -13.2127 -6.00554
rtoes 12.2982
lfemur -18.6191 8.07388 -18.7837
ltibia 23.7441
lfoot -10.8454 7.6056
ltoes 4.2578
135
root 0.44623 17.5544 -14.4647 9.28437 -1.44513 -1.40935
lowerback 2.95273 -0.461673 -0.381246
upperback 6.08764 -0.682468 1.77874
thorax 4.6572 -0.406013 2.04522
lowerneck -15.4488 0.374884 -2.01684
upperneck 25.9388 0.432218 2.27965
head 10.9073 0.271977 1.22573
rclavicle -9.24349e-015 5.56597e-015
rhumerus -20.8298 -12.7819 -80.6978
rradius 25.008
rwrist 30.8806
rhand -19.2732 -26.9756
rfingers 7.12502
rthumb 7.04148 -56.8385
lclavicle -9.24349e-015 5.56597e-015
lhumerus -17.1582 -5.00636 87.4326
lradius 22.8208
lwrist 6.77454
lhand -26.3104 -3.13645
lfingers 7.12502
lthumb 0.24598 26.8431
rfemur -20.8461 -3.85662 19.6228
rtibia 26.4848
rfoot -13.2018 -6.00188
rtoes 12.2414
lfemur -19.2136 8.15132 -18.8758
ltibia 24.0772
lfoot -10.8682 7.56325
ltoes 4.26124
136
root 0.449262 17.549 -14.4992 9.5517 -1.47973 -1.38646
lowerback 3.16493 -0.458441 -0.41755
upperback 6.17607 -0.677942 1.773
thorax 4.63051 -0.405752 2.0613
lowerneck -15.4944 0.378327 -2.01125
upperneck 26.034 0.444763 2.24489
head 10.9517 0.273585 1.21539
rclavicle 5.36719e-015 -1.78906e-015
rhumerus -20.7243 -12.7354 -80.7086
rradius 24.9857
rwrist 30.8719
rhand -19.2613 -27.0049
rfingers 7.12502
rthumb 7.0529 -56.8674
lclavicle 5.36719e-015 -1.78906e-015
lhumerus -17.0953 -5.03291 87.4164
lradius 22.7136
lwrist 6.66533
lhand -26.2719 -3.13662
lfingers 7.12502
lthumb 0.283159 26.8429
rfemur -21.4521 -3.84799 19.6167
rtibia 26.8039
rfoot -13.1861 -5.99382
rtoes 12.183
lfemur -19.8135 8.21969 -18.9754
ltibia 24.3946
lfoot -10.8817 7.52322
ltoes 4.27159
137
root 0.452399 17.5438 -14.5335 9.82729 -1.5097 -1.36099
lowerback 3.37192 -0.457627 -0.451539
upperback 6.25896 -0.676618 1.76431
thorax 4.60109 -0.406855 2.07296
lowerneck -15.536 0.3841 -2.00408
upperneck 26.1278 0.460148 2.21016
head 10.9949 0.276597 1.20513
rclavicle 3.57812e-015 -4.17448e-015
rhumerus -20.6202 -12.7157 -80.7193
rradius 24.9521
rwrist 30.8885
rhand -19.2497 -27.0197
rfingers 7.12502
rthumb 7.06409 -56.8818
lclavicle 3.57812e-015 -4.17448e-015
lhumerus -17.041 -5.06864 87.4038
lradius 22.6005
lwrist 6.54935
lhand -26.2393 -3.14922
lfingers 7.12502
lthumb 0.314605 26.8303
rfemur -22.059 -3.84631 19.6088
rtibia 27.1089
rfoot -13.1663 -5.98274
rtoes 12.1253
lfemur -20.414 8.27821 -19.0791
ltibia 24.6948
lfoot -10.8867 7.48432
ltoes 4.29143
138
root 0.455597 17.5389 -14.5675 10.1039 -1.53358 -1.33813
lowerback 3.57784 -0.458744 -0.476415
upperback 6.33935 -0.677823 1.75287
thorax 4.56966 -0.4087 2.07663
lowerneck -15.576 0.392903 -1.99174
upperneck 26.218 0.480722 2.16746
head 11.0364 0.281468 1.19173
rclavicle 3.08116e-015 -9.34288e-015
rhumerus -20.5195 -12.7186 -80.7333
rradius 24.9131
rwrist 30.9232
rhand -19.2364 -27.0257
rfingers 7.12502
rthumb 7.07694 -56.8874
lclavicle 3.08116e-015 -9.34288e-015
lhumerus -16.987 -5.11595 87.3939
lradius 22.4746
lwrist 6.42811
lhand -26.2086 -3.1468
lfingers 7.12502
lthumb 0.344268 26.8327
rfemur -22.656 -3.8502 19.6046
rtibia 27.3961
rfoot -13.1417 -5.97165
rtoes 12.0714
lfemur -21.0057 8.33103 -19.1801
ltibia 24.9758
lfoot -10.8847 7.44342
ltoes 4.31742
